<?xml version="1.0" standalone="no"?>
<!DOCTYPE svg PUBLIC "-//W3C//DTD SVG 20010904//EN"
 "http://www.w3.org/TR/2001/REC-SVG-20010904/DTD/svg10.dtd">
<svg version="1.0" xmlns="http://www.w3.org/2000/svg"
 width="300.000000pt" height="300.000000pt" viewBox="0 0 300.000000 300.000000"
 preserveAspectRatio="xMidYMid meet">
<metadata>
Created by potrace 1.11, written by Peter Selinger 2001-2013
</metadata>
<g transform="translate(0.000000,300.000000) scale(0.100000,-0.100000)"
fill="#000000" stroke="none">
<path d="M2137 2793 c-1 -1 -248 -3 -549 -4 -442 -2 -554 -6 -582 -17 -40 -16
-9 32 -487 -747 -284 -463 -300 -492 -296 -530 3 -30 67 -144 252 -455 453
-760 476 -799 503 -817 25 -16 76 -17 777 -16 413 1 767 2 787 2 74 2 128 82
104 152 -7 19 -129 198 -271 399 -440 621 -487 690 -481 703 3 6 146 235 317
507 435 691 419 663 419 711 0 33 -6 47 -34 75 -19 19 -45 35 -57 35 -41 2
-401 4 -402 2z m145 -254 c-2 -8 -14 -30 -26 -49 -13 -19 -119 -188 -236 -375
-117 -187 -227 -362 -245 -390 -17 -27 -78 -124 -134 -215 -57 -91 -165 -264
-242 -385 -76 -121 -146 -233 -155 -250 -10 -16 -39 -63 -66 -103 -26 -41 -48
-75 -48 -77 0 -2 -20 -34 -44 -71 l-45 -67 -26 44 c-14 24 -141 237 -281 472
l-255 428 277 452 c152 249 282 461 288 472 6 11 13 22 16 25 3 3 18 26 33 52
l27 47 432 1 c238 0 433 2 434 3 1 1 69 2 151 1 123 0 147 -3 145 -15z m-376
-1529 c82 -116 154 -218 159 -228 6 -9 12 -19 15 -22 10 -9 220 -307 220 -312
0 -5 -1029 -2 -1034 3 -3 4 340 560 362 584 5 6 11 15 13 21 11 28 105 171
110 168 3 -1 73 -98 155 -214z"/>
</g>
</svg>
