<?xml version="1.0" standalone="no"?>
<!DOCTYPE svg PUBLIC "-//W3C//DTD SVG 20010904//EN"
 "http://www.w3.org/TR/2001/REC-SVG-20010904/DTD/svg10.dtd">
<svg version="1.0" xmlns="http://www.w3.org/2000/svg"
 width="300.000000pt" height="300.000000pt" viewBox="0 0 300.000000 300.000000"
 preserveAspectRatio="xMidYMid meet">
<metadata>
Created by potrace 1.11, written by Peter Selinger 2001-2013
</metadata>
<g transform="translate(0.000000,300.000000) scale(0.100000,-0.100000)"
fill="#000000" stroke="none">
<path d="M560 1458 l0 -913 218 3 217 3 309 547 c170 301 372 649 449 775
l139 227 174 0 175 0 -12 -22 c-6 -13 -95 -173 -196 -356 -102 -183 -187 -341
-190 -351 -3 -11 51 -102 153 -257 86 -131 168 -256 181 -277 l23 -37 -167 0
-168 0 -88 140 c-49 77 -92 138 -96 135 -5 -2 -41 -59 -80 -125 l-73 -121 77
-122 c43 -67 83 -130 89 -140 10 -16 45 -17 503 -17 l492 0 -270 412 c-264
402 -270 413 -256 438 8 14 119 214 247 445 128 231 246 444 262 473 l29 52
-494 0 -494 0 -153 -272 c-121 -215 -602 -1017 -667 -1113 -11 -16 -13 69 -13
538 l0 557 130 0 130 0 0 145 0 145 -290 0 -290 0 0 -912z"/>
</g>
</svg>
